<?xml version="1.0" standalone="no"?>
<!DOCTYPE svg PUBLIC "-//W3C//DTD SVG 20010904//EN"
 "http://www.w3.org/TR/2001/REC-SVG-20010904/DTD/svg10.dtd">
<svg version="1.0" xmlns="http://www.w3.org/2000/svg"
 width="545.000000pt" height="547.000000pt" viewBox="0 0 545.000000 547.000000"
 preserveAspectRatio="xMidYMid meet">

<g transform="translate(0.000000,547.000000) scale(0.100000,-0.100000)"
fill="#000000" stroke="none">
<path d="M2530 5385 c-959 -105 -1786 -683 -2175 -1519 -216 -463 -301 -1060
-230 -1601 67 -505 294 -972 659 -1352 446 -466 1016 -747 1658 -819 186 -21
524 -14 713 15 726 110 1326 473 1739 1051 89 124 135 204 222 385 328 684
335 1519 19 2296 -365 896 -1111 1457 -2060 1549 -135 13 -404 11 -545 -5z
m465 -15 c112 -13 215 -33 370 -72 147 -37 192 -45 105 -17 -36 11 -83 27
-105 34 -40 15 -40 15 -5 9 55 -10 261 -74 305 -95 40 -19 28 -19 -34 0 -43
13 -29 -1 19 -19 49 -19 189 -84 291 -135 198 -100 387 -242 584 -439 225
-225 372 -430 492 -686 35 -74 72 -151 83 -170 21 -39 109 -343 135 -465 22
-103 34 -115 23 -25 -10 87 -119 436 -182 584 -25 60 -44 111 -42 114 11 11
72 -138 144 -354 89 -267 103 -334 142 -654 60 -495 -29 -985 -266 -1466 -201
-408 -502 -753 -871 -998 -273 -181 -595 -309 -931 -371 -114 -21 -163 -25
-335 -25 -245 1 -419 13 -586 40 -726 121 -1293 471 -1721 1062 -96 132 -146
231 -287 558 -167 387 -150 319 -178 713 -13 171 -7 508 9 569 9 31 23 106 31
165 58 398 211 738 486 1083 345 434 918 826 1439 985 75 23 152 35 460 73
105 13 318 14 425 2z"/>
<path d="M2575 5124 c-16 -2 -73 -9 -125 -15 -381 -43 -753 -194 -1090 -442
-113 -83 -362 -330 -447 -442 -225 -298 -390 -652 -466 -995 -49 -219 -61
-330 -61 -560 0 -332 46 -579 163 -873 150 -377 432 -737 771 -983 77 -56 93
-62 43 -17 -24 21 -43 43 -43 49 0 6 -44 51 -97 100 -440 402 -682 847 -775
1419 -28 175 -31 498 -4 660 57 354 163 649 344 955 69 115 206 300 293 394
155 168 394 351 599 459 191 101 456 186 700 224 160 24 510 25 670 0 695
-107 1279 -473 1654 -1037 115 -172 237 -448 290 -655 55 -215 93 -547 81
-715 -2 -36 -7 -110 -10 -165 -17 -277 -111 -623 -233 -860 -257 -495 -650
-842 -1223 -1078 -86 -36 -165 -70 -175 -76 -45 -26 31 -9 139 30 475 174 847
459 1116 854 493 723 542 1731 125 2550 -171 336 -402 606 -704 822 -275 197
-632 333 -1005 383 -83 11 -477 22 -530 14z"/>
<path d="M2630 4814 c-286 -26 -548 -99 -805 -224 -304 -147 -558 -356 -756
-620 -216 -288 -345 -590 -410 -960 -17 -97 -18 -455 -1 -575 36 -253 114
-532 203 -726 92 -201 222 -388 331 -477 475 -388 826 -548 1333 -607 800 -93
1629 308 2057 998 237 381 323 884 243 1422 -33 225 -80 370 -195 610 -109
228 -245 419 -422 592 -121 118 -161 152 -288 236 -240 159 -512 263 -816 312
-97 16 -384 27 -474 19z m455 -59 c364 -61 690 -217 980 -468 401 -348 657
-813 730 -1329 17 -121 19 -368 4 -488 -58 -471 -272 -901 -605 -1220 -383
-367 -918 -581 -1454 -583 -439 -1 -878 143 -1235 406 -176 130 -356 311 -476
481 -82 118 -196 343 -239 476 -162 500 -121 1080 110 1555 271 557 779 972
1385 1130 89 23 247 51 335 59 87 8 376 -4 465 -19z"/>
<path d="M3597 4374 c-4 -4 -7 -73 -7 -154 0 -81 -3 -201 -6 -266 l-7 -120
-411 -68 c-226 -37 -483 -81 -571 -97 -177 -32 -268 -36 -320 -15 -19 8 -76
44 -125 80 -50 35 -116 75 -146 87 -52 22 -54 24 -54 60 0 54 -16 91 -38 87
-16 -3 -22 -21 -38 -105 -3 -16 -15 -25 -43 -33 -77 -21 -75 -12 -81 -381 -3
-193 -10 -332 -15 -338 -6 -5 -23 -11 -40 -13 -27 -3 -30 -7 -33 -41 -3 -36
10 -67 29 -67 4 0 15 7 24 16 9 9 19 14 22 10 3 -3 10 -74 14 -157 9 -167 16
-185 69 -203 43 -14 58 -55 59 -154 1 -60 -2 -75 -19 -89 -25 -22 -25 -34 0
-56 21 -17 17 -47 -6 -47 -7 0 -18 -9 -24 -19 -13 -25 -13 -27 5 -44 11 -12
12 -21 3 -48 -20 -64 -20 -64 -102 -67 -55 -2 -76 -6 -73 -15 3 -8 24 -11 66
-9 73 5 121 -11 121 -40 0 -19 -5 -20 -77 -15 -43 3 -88 9 -100 12 -20 6 -23
4 -23 -18 0 -29 16 -37 72 -37 85 0 143 -59 119 -121 -18 -50 -26 -51 -273
-53 -240 -1 -318 6 -318 30 0 25 104 137 167 180 34 23 85 52 115 63 l53 22
-64 -6 c-37 -3 -78 -13 -100 -26 -45 -26 -165 -166 -285 -334 -9 -13 -17 -61
-21 -137 l-7 -116 28 -19 c26 -17 64 -19 474 -25 619 -10 2730 5 2753 19 10 6
3 232 -8 270 -4 12 -14 25 -23 30 -10 4 -665 10 -1457 13 -1290 5 -1345 6
-522 8 807 2 917 4 917 17 0 13 -81 15 -665 15 l-665 0 0 79 0 79 186 4 c208
3 214 6 214 76 l0 35 188 -6 c103 -4 272 -7 375 -7 l189 0 -7 -42 c-4 -24 -11
-47 -16 -52 -4 -5 -73 -9 -151 -8 -88 1 -137 -2 -128 -7 19 -11 487 -48 496
-39 9 9 39 176 69 384 29 198 46 439 36 504 -6 39 -8 31 -14 -60 -17 -246 -77
-566 -124 -660 -23 -44 -33 -56 -56 -58 -42 -5 -43 18 -9 131 18 56 45 161 62
232 17 72 47 188 67 259 35 126 36 129 24 212 -23 167 -91 278 -203 333 -111
54 -380 86 -588 71 -201 -16 -260 -56 -390 -265 -39 -63 -75 -117 -80 -120
-14 -8 -48 -90 -56 -131 -7 -37 -28 -54 -45 -37 -14 14 8 186 32 248 10 28 19
60 19 72 0 32 41 76 130 138 140 99 204 119 400 129 158 8 495 -10 570 -29
133 -34 224 -101 279 -205 43 -80 49 -102 71 -253 21 -150 42 -192 112 -226
53 -25 136 -28 179 -5 42 21 46 12 9 -19 -84 -71 -194 -36 -293 93 l-27 35 15
-50 c36 -123 120 -168 246 -130 150 46 182 123 249 605 17 124 33 230 36 235
2 6 2 -37 -1 -95 -14 -286 -24 -646 -26 -928 l-2 -313 -268 3 c-147 2 -271 6
-275 10 -3 4 6 56 20 115 39 153 66 290 66 327 l-1 31 -14 -25 c-17 -29 -98
-273 -146 -439 -24 -84 -38 -115 -51 -119 -10 -2 -18 -9 -18 -16 -1 -6 -5 -30
-9 -53 -12 -61 5 -53 25 12 15 46 21 54 38 50 44 -8 213 -16 229 -9 26 10 20
24 -10 26 -79 4 128 16 298 17 241 1 258 4 266 43 5 23 8 26 20 17 24 -20 133
-170 133 -182 0 -10 -113 -13 -492 -16 -271 -1 -496 -5 -500 -7 -5 -3 -8 -10
-8 -16 0 -14 1025 -7 1040 8 7 7 1 25 -21 60 -44 69 -161 224 -170 224 -31 0
-51 356 -47 800 l3 305 29 -2 c37 -3 42 -12 51 -92 12 -112 35 -134 129 -123
56 7 58 22 48 499 -10 485 -8 476 -86 481 -107 7 -115 -8 -117 -210 0 -76 -4
-138 -7 -138 -4 0 -14 15 -22 33 -12 25 -23 33 -52 38 -23 3 -53 20 -79 43
-55 50 -132 84 -206 92 l-60 7 -9 266 -9 266 -45 3 c-25 2 -49 0 -53 -4z m678
-466 c4 -13 10 -202 12 -420 l5 -398 -25 0 c-45 0 -57 32 -57 155 0 76 4 115
13 123 15 16 23 293 11 402 l-9 75 -6 -85 c-5 -84 -5 -84 -7 36 -1 66 1 124 5
127 15 16 51 6 58 -15z m-565 -118 c159 -10 210 -33 254 -115 34 -65 29 -230
-18 -557 -22 -148 -42 -268 -46 -268 -5 0 -11 11 -14 25 -3 13 -20 41 -38 60
-104 119 -338 116 -338 -3 0 -44 -21 -10 -37 59 -40 176 -141 283 -313 335
-99 30 -437 49 -606 34 -184 -16 -297 -57 -446 -160 -102 -71 -112 -69 -126
28 -17 108 -16 535 0 530 7 -3 20 -24 28 -49 28 -78 110 -192 126 -176 3 3 -6
33 -21 66 -15 33 -25 65 -23 71 5 16 84 -48 104 -86 11 -19 31 -38 48 -44 58
-20 189 -23 316 -7 69 9 341 42 604 73 264 30 490 60 503 65 29 11 41 38 22
51 -20 13 -172 2 -449 -33 -234 -29 -713 -94 -780 -105 -19 -3 -32 -3 -29 0 8
8 146 36 182 36 24 0 28 3 17 10 -19 12 -13 14 120 39 67 13 107 16 111 10 4
-7 70 3 180 26 96 20 230 47 299 60 69 13 148 28 175 33 28 5 57 7 65 4 8 -3
67 -8 130 -12z m-1879 -285 c0 -158 -4 -291 -7 -297 -12 -20 -24 16 -24 75 0
32 -5 78 -11 101 -22 86 12 439 39 412 2 -3 4 -134 3 -291z m1031 -265 c218
-28 302 -60 372 -142 105 -122 94 -340 -36 -723 -34 -99 -66 -195 -72 -212
l-11 -33 -397 0 -398 0 0 -25 c0 -20 -7 -26 -42 -36 -61 -16 -204 -28 -266
-21 -100 10 -74 61 32 63 100 2 135 16 43 18 -108 1 -113 5 -122 95 -8 92 2
117 48 113 27 -2 34 3 51 35 27 49 13 83 -43 98 -31 8 -41 17 -50 42 -25 70
-10 123 40 148 29 15 44 33 67 82 17 35 58 121 91 193 34 71 80 153 102 182
106 137 250 167 591 123z m1177 -582 c0 -514 -3 -578 -23 -558 -22 22 -8 1050
15 1050 4 0 8 -222 8 -492z m-273 313 c104 -47 130 -172 57 -270 -47 -61 -143
-89 -192 -55 -13 9 -33 17 -44 18 -46 2 -80 109 -63 200 19 102 138 154 242
107z m-2459 -1167 c-3 -3 -12 -4 -19 -1 -8 3 -5 6 6 6 11 1 17 -2 13 -5z m46
-1 c-7 -2 -19 -2 -25 0 -7 3 -2 5 12 5 14 0 19 -2 13 -5z m2767 -40 c140 -22
183 -35 208 -60 22 -22 24 -30 18 -76 -8 -60 -33 -91 -85 -108 -44 -15 -186
-14 -306 2 -97 13 -1570 19 -2165 9 l-315 -6 215 -4 c118 -3 262 -5 320 -4 63
0 92 -2 73 -6 -45 -10 -713 1 -713 11 0 5 -39 9 -87 9 -139 0 -134 -4 -127
104 9 153 -25 135 262 138 136 2 783 3 1437 3 877 0 1210 -3 1265 -12z m-1722
-260 c-49 -2 -127 -2 -175 0 -49 1 -9 3 87 3 96 0 136 -2 88 -3z m149 1 c-3
-3 -12 -4 -19 -1 -8 3 -5 6 6 6 11 1 17 -2 13 -5z m146 -1 c-7 -2 -19 -2 -25
0 -7 3 -2 5 12 5 14 0 19 -2 13 -5z m54 1 c-3 -3 -12 -4 -19 -1 -8 3 -5 6 6 6
11 1 17 -2 13 -5z m236 -1 c-35 -2 -91 -2 -125 0 -35 2 -7 3 62 3 69 0 97 -1
63 -3z"/>
<path d="M3534 3549 c-12 -11 -39 -24 -60 -29 -21 -5 -199 -10 -394 -11 -447
-3 -697 -16 -678 -35 13 -13 191 -24 465 -29 506 -9 618 -14 657 -30 72 -30
126 -9 126 49 0 84 -68 134 -116 85z"/>
<path d="M3653 2941 c-71 -12 -111 -68 -99 -136 11 -55 44 -86 98 -92 77 -9
114 3 132 41 29 62 19 113 -32 169 -27 28 -30 29 -99 18z"/>
<path d="M2704 1735 c-36 -15 -61 -42 -69 -77 -9 -34 23 -56 94 -65 66 -8 81
5 81 67 0 69 -46 101 -106 75z"/>
</g>
</svg>
